<?xml version="1.0" encoding="utf-8"?>
<!-- Generator: Adobe Illustrator 23.0.5, SVG Export Plug-In . SVG Version: 6.00 Build 0)  -->
<svg version="1.1" id="Capa_1" xmlns="http://www.w3.org/2000/svg" xmlns:xlink="http://www.w3.org/1999/xlink" x="0px" y="0px"
	 viewBox="0 0 500 500" style="enable-background:new 0 0 500 500;" xml:space="preserve">
<style type="text/css">
	.st0{fill:#B7B7B5;}
	.st1{fill:#9D9D9B;}
	.st2{fill:#6B6B68;}
	.st3{fill:#0B0C0E;}
	.st4{fill:#FFFFFF;}
	.st5{display:none;}
	.st6{display:inline;}
</style>
<path class="st0" d="M68.82,226.75c12.84,12.84,26.27,17.97,39.79,17.32c12.89-44.15,44.84-80.17,86.33-98.58
	c-1.63-10-6.62-19.78-15.85-29.01c-30.45-30.45-79.82-30.45-110.27,0C38.37,146.93,38.37,196.3,68.82,226.75z"/>
<path class="st1" d="M114.87,215.82c-4.52-1.26-9.56-4.21-13.95-8.46c-16.61-16.12-17.01-42.64-0.89-59.25
	c16.12-16.61,42.64-17.01,59.25-0.89c3.41,3.3,5.77,6.76,7.24,10.31"/>
<path class="st0" d="M432.18,232.08c-12.84,12.84-26.27,17.97-39.79,17.32c-12.89-44.15-44.84-80.17-86.33-98.58
	c1.63-10,6.62-19.78,15.85-29.01c30.45-30.45,79.82-30.45,110.27,0C462.63,152.26,462.63,201.63,432.18,232.08z"/>
<polygon class="st0" points="277.3,160.13 262.32,121.97 237.36,150.26 242.1,156.13 "/>
<polygon class="st0" points="235.42,152.29 244.72,121.43 258.19,151.74 "/>
<polyline class="st0" points="218.93,144.84 231.38,122.75 245.91,144.31 218.93,145.49 "/>
<path class="st1" d="M378.96,223.23c4.52-1.26,9.56-4.21,13.95-8.46c16.61-16.12,17.01-42.64,0.89-59.25
	c-16.12-16.61-42.64-17.01-59.25-0.89c-3.41,3.3-5.77,6.76-7.24,10.31"/>
<path class="st0" d="M188.28,146.23c17.59-6.9,36.74-10.69,56.78-10.69c22.42,0,43.74,4.74,63,13.28
	c64.33,21.72,86.33,98.58,86.33,98.58c4.06,13.86,6.23,28.53,6.23,43.7c0,85.91-73.5,115.26-159.41,115.26S89.51,377.01,89.51,291.1
	c0-15.23,2.19-29.95,6.27-43.86C95.78,247.24,126.25,166.95,188.28,146.23z"/>
<path class="st2" d="M298.21,320.96c0,28.11-24.05,37.72-52.16,37.72s-49.64-9.6-49.64-37.72s22.79-50.9,50.9-50.9
	S298.21,292.85,298.21,320.96z"/>
<circle class="st3" cx="160.91" cy="270.06" r="16.89"/>
<circle class="st3" cx="332.77" cy="270.06" r="16.89"/>
<circle class="st4" cx="164.5" cy="266.95" r="4.34"/>
<circle class="st4" cx="336.89" cy="266.95" r="4.34"/>
<g class="st5">
	<g class="st6">
		<path class="st0" d="M110.59,409.51c-3.04,0-5.37,0.93-6.98,2.78c-1.62,1.85-2.43,4.48-2.43,7.87c0,3.43,0.9,6.08,2.69,7.93
			c1.79,1.86,4.21,2.78,7.25,2.78c1.62,0,2.99-0.22,4.11-0.65c0.49-0.19,0.98-0.39,1.46-0.61c1.23-0.55,2.73-0.12,3.33,1.09
			c0,0.01,0.01,0.02,0.01,0.02c0.38,0.77,0.56,1.67,0.56,2.69c0,1.62-0.9,2.99-2.69,4.11c-1.8,1.12-4.53,1.69-8.2,1.69
			c-2.64,0-5.13-0.38-7.46-1.12c-2.33-0.75-4.36-1.9-6.1-3.46c-1.74-1.56-3.11-3.53-4.11-5.92c-1.01-2.39-1.51-5.24-1.51-8.55
			c0-3.08,0.48-5.79,1.45-8.14c0.97-2.35,2.29-4.33,3.97-5.95c1.68-1.62,3.64-2.84,5.89-3.67c2.25-0.83,4.66-1.24,7.22-1.24
			c3.63,0,6.44,0.59,8.43,1.78c1.99,1.18,2.99,2.7,2.99,4.56c0,1.03-0.26,1.92-0.77,2.66c-0.04,0.05-0.07,0.1-0.11,0.15
			c-0.74,1.03-2.14,1.28-3.26,0.69c-0.55-0.29-1.11-0.55-1.69-0.78C113.48,409.75,112.13,409.51,110.59,409.51z"/>
		<path class="st0" d="M158.18,435.97c0,1.16-0.86,2.16-2.01,2.31c-0.01,0-0.02,0-0.03,0c-0.93,0.12-1.85,0.18-2.75,0.18
			c-0.91,0-1.71-0.07-2.4-0.21c-0.69-0.14-1.27-0.38-1.75-0.74c-0.47-0.36-0.83-0.85-1.07-1.48c-0.24-0.63-0.35-1.46-0.35-2.49
			v-9.23h-11.36v11.66c0,1.16-0.86,2.16-2.01,2.31c-0.01,0-0.02,0-0.03,0c-0.93,0.12-1.85,0.18-2.75,0.18
			c-0.91,0-1.71-0.07-2.4-0.21c-0.69-0.14-1.27-0.38-1.75-0.74c-0.47-0.36-0.83-0.85-1.07-1.48c-0.24-0.63-0.35-1.46-0.35-2.49
			v-29.2c0-1.19,0.87-2.2,2.05-2.37l0.02,0c0.95-0.14,1.85-0.21,2.72-0.21c0.91,0,1.71,0.07,2.4,0.21c0.69,0.14,1.27,0.38,1.75,0.74
			c0.47,0.36,0.83,0.85,1.06,1.48c0.24,0.63,0.36,1.46,0.36,2.49v9.47h11.36v-11.81c0-1.19,0.87-2.19,2.04-2.36l0.03,0
			c0.95-0.14,1.85-0.21,2.72-0.21c0.91,0,1.71,0.07,2.4,0.21c0.69,0.14,1.27,0.38,1.75,0.74c0.47,0.36,0.83,0.85,1.07,1.48
			c0.24,0.63,0.35,1.46,0.35,2.49V435.97z"/>
		<path class="st0" d="M172.59,405.81c0.65-1.76,2.11-3.09,3.93-3.56l0.04-0.01c1.36-0.35,2.73-0.53,4.11-0.53
			c1.97,0,3.72,0.29,5.24,0.86c1.52,0.57,2.5,1.47,2.93,2.69c0.71,2.05,1.48,4.44,2.31,7.16s1.66,5.53,2.49,8.43
			c0.83,2.9,1.64,5.76,2.43,8.58c0.57,2.05,1.09,3.92,1.56,5.62c0.36,1.31-0.31,2.73-1.59,3.19c-0.01,0-0.02,0.01-0.03,0.01
			c-0.95,0.33-2.07,0.5-3.37,0.5c-0.95,0-1.75-0.08-2.4-0.24c-0.65-0.16-1.18-0.39-1.6-0.71c-0.41-0.32-0.75-0.73-1.01-1.24
			c-0.26-0.51-0.48-1.1-0.68-1.78l-1.07-4.08h-10.71c-0.32,1.18-0.63,2.41-0.95,3.67c-0.19,0.75-0.38,1.49-0.56,2.21
			c-0.24,0.94-0.97,1.68-1.92,1.91c-0.07,0.02-0.14,0.03-0.21,0.05c-0.61,0.14-1.35,0.21-2.22,0.21c-2.01,0-3.5-0.35-4.47-1.04
			c-0.97-0.69-1.45-1.65-1.45-2.87c0-0.55,0.08-1.1,0.24-1.66c0.16-0.55,0.33-1.2,0.53-1.95c0.28-1.07,0.66-2.39,1.15-3.97
			c0.49-1.58,1.04-3.28,1.63-5.12s1.22-3.72,1.89-5.65c0.67-1.93,1.3-3.76,1.89-5.47c0.59-1.72,1.13-3.25,1.63-4.59
			C172.43,406.22,172.51,406.01,172.59,405.81z M180.61,410.99c-0.55,1.66-1.17,3.5-1.86,5.53c-0.69,2.03-1.31,4.09-1.86,6.19h7.34
			c-0.55-2.13-1.12-4.21-1.69-6.24c-0.57-2.03-1.09-3.86-1.57-5.48H180.61z"/>
		<path class="st0" d="M213.28,426.56v9.41c0,1.16-0.86,2.16-2.01,2.31c-0.01,0-0.02,0-0.03,0c-0.93,0.12-1.85,0.18-2.75,0.18
			c-0.91,0-1.71-0.07-2.4-0.21c-0.69-0.14-1.26-0.38-1.72-0.74c-0.45-0.36-0.8-0.85-1.04-1.48c-0.24-0.63-0.35-1.46-0.35-2.49
			v-27.88c0-0.83,0.23-1.47,0.68-1.92c0.45-0.45,1.07-0.82,1.86-1.09c1.34-0.47,2.9-0.82,4.68-1.04c1.78-0.22,3.67-0.33,5.68-0.33
			c5.45,0,9.55,1.14,12.31,3.43c2.76,2.29,4.14,5.39,4.14,9.29c0,2.45-0.63,4.54-1.89,6.27c-1.26,1.74-2.76,3.08-4.5,4.02
			c1.42,1.93,2.82,3.75,4.2,5.45c1.05,1.29,1.93,2.49,2.63,3.59c0.43,0.67,0.51,1.52,0.15,2.22c-0.41,0.81-0.98,1.46-1.69,1.97
			c-1.05,0.73-2.22,1.09-3.52,1.09c-0.87,0-1.62-0.1-2.25-0.3c-0.63-0.2-1.18-0.47-1.66-0.83c-0.47-0.36-0.91-0.79-1.3-1.3
			c-0.4-0.51-0.77-1.07-1.12-1.66l-4.97-7.99H213.28z M217.01,418.69c1.5,0,2.68-0.38,3.55-1.15c0.87-0.77,1.3-1.9,1.3-3.4
			c0-1.5-0.48-2.63-1.45-3.4c-0.97-0.77-2.5-1.15-4.59-1.15c-0.59,0-1.07,0.02-1.42,0.06c-0.36,0.04-0.75,0.1-1.18,0.18v8.88H217.01
			z"/>
		<path class="st0" d="M244.53,438.34c-1.7,0-3.04-0.49-4.02-1.48c-0.99-0.99-1.48-2.33-1.48-4.02v-28.55c0-1.19,0.87-2.2,2.05-2.37
			l0.02,0c0.95-0.14,1.85-0.21,2.72-0.21c0.91,0,1.71,0.07,2.4,0.21c0.69,0.14,1.27,0.38,1.75,0.74c0.47,0.35,0.83,0.85,1.06,1.48
			c0.24,0.63,0.36,1.46,0.36,2.49v23.38h11.89c1.09,0,2.09,0.68,2.43,1.72c0,0.01,0,0.01,0.01,0.02c0.24,0.73,0.35,1.49,0.35,2.28
			c0,1.58-0.33,2.69-1.01,3.34c-0.67,0.65-1.56,0.98-2.66,0.98H244.53z"/>
		<path class="st0" d="M269.39,407.8c0-1.7,0.49-3.04,1.48-4.02c0.99-0.99,2.33-1.48,4.03-1.48h17.92c1.06,0,2.02,0.67,2.34,1.68
			c0,0.01,0.01,0.02,0.01,0.03c0.22,0.71,0.33,1.46,0.33,2.25c0,1.5-0.33,2.57-0.98,3.2c-0.65,0.63-1.51,0.95-2.57,0.95h-12.49v5.5
			h11.72c1.05,0,2.01,0.66,2.33,1.67c0,0.01,0,0.01,0.01,0.02c0.22,0.69,0.33,1.43,0.33,2.22c0,1.5-0.32,2.57-0.95,3.2
			c-0.63,0.63-1.48,0.95-2.55,0.95h-10.89v6.21h13.6c1.06,0,2.03,0.67,2.34,1.69c0,0.01,0.01,0.02,0.01,0.03
			c0.22,0.71,0.33,1.46,0.33,2.25c0,1.5-0.33,2.57-0.98,3.23c-0.65,0.65-1.51,0.98-2.58,0.98h-17.28c-1.7,0-3.04-0.49-4.03-1.48
			s-1.48-2.33-1.48-4.02V407.8z"/>
		<path class="st0" d="M301.82,410.58c-1.11,0-2.09-0.72-2.43-1.78l0,0c-0.24-0.75-0.35-1.54-0.35-2.37c0-1.54,0.34-2.64,1.04-3.31
			c0.69-0.67,1.59-1.01,2.69-1.01h24.17c1.09,0,2.06,0.71,2.39,1.75l0.01,0.02c0.24,0.75,0.36,1.54,0.36,2.37
			c0,1.54-0.35,2.64-1.04,3.31c-0.69,0.67-1.59,1.01-2.69,1.01h-6.57v25.39c0,1.16-0.86,2.16-2.01,2.31c-0.01,0-0.02,0-0.03,0
			c-0.93,0.12-1.84,0.18-2.75,0.18c-0.91,0-1.71-0.07-2.4-0.21c-0.69-0.14-1.27-0.38-1.75-0.74c-0.47-0.36-0.83-0.85-1.07-1.48
			c-0.24-0.63-0.36-1.46-0.36-2.49v-22.96H301.82z"/>
		<path class="st0" d="M335.17,410.58c-1,0-1.89-0.62-2.2-1.57c-0.02-0.07-0.04-0.14-0.07-0.21c-0.24-0.75-0.35-1.54-0.35-2.37
			c0-1.54,0.34-2.64,1.04-3.31c0.69-0.67,1.59-1.01,2.69-1.01h24.31c1,0,1.89,0.62,2.2,1.57c0.02,0.07,0.05,0.14,0.07,0.21
			c0.24,0.75,0.36,1.54,0.36,2.37c0,1.54-0.35,2.64-1.04,3.31c-0.69,0.67-1.59,1.01-2.69,1.01h-6.57v25.39
			c0,1.16-0.86,2.16-2.01,2.31c-0.01,0-0.02,0-0.03,0c-0.93,0.12-1.84,0.18-2.75,0.18c-0.91,0-1.71-0.07-2.4-0.21
			c-0.69-0.14-1.27-0.38-1.75-0.74c-0.47-0.36-0.83-0.85-1.07-1.48c-0.24-0.63-0.36-1.46-0.36-2.49v-22.96H335.17z"/>
		<path class="st0" d="M364.92,420.17c0-3.08,0.48-5.8,1.45-8.17c0.97-2.37,2.29-4.35,3.97-5.95c1.68-1.6,3.65-2.81,5.92-3.64
			c2.27-0.83,4.73-1.24,7.37-1.24s5.1,0.42,7.37,1.24c2.27,0.83,4.25,2.04,5.95,3.64c1.7,1.6,3.03,3.58,4,5.95
			c0.97,2.37,1.45,5.09,1.45,8.17c0,3.08-0.47,5.81-1.42,8.2s-2.26,4.38-3.94,5.98c-1.68,1.6-3.66,2.81-5.95,3.64
			c-2.29,0.83-4.78,1.24-7.46,1.24c-2.68,0-5.17-0.42-7.46-1.27c-2.29-0.85-4.26-2.08-5.92-3.7c-1.66-1.62-2.96-3.61-3.91-5.98
			C365.39,425.91,364.92,423.21,364.92,420.17z M375.57,420.17c0,3.59,0.73,6.27,2.19,8.05c1.46,1.78,3.41,2.66,5.86,2.66
			c2.49,0,4.46-0.89,5.92-2.66c1.46-1.78,2.19-4.46,2.19-8.05c0-3.55-0.72-6.21-2.16-7.99c-1.44-1.78-3.4-2.66-5.89-2.66
			c-2.45,0-4.41,0.88-5.89,2.63C376.31,413.9,375.57,416.58,375.57,420.17z"/>
	</g>
</g>
<g>
	<g>
		<circle class="st0" cx="247.31" cy="308.36" r="10.41"/>
		<rect x="244.3" y="313.58" class="st0" width="6.03" height="18.22"/>
		<g>
			<path class="st0" d="M221.35,326.76C221.35,326.76,221.35,326.76,221.35,326.76c1.22-1.14,3.28-0.93,4.81,0.05
				c6.54,4.3,15.41,3.57,21.16-2.18c1.42,1.42,2.84,2.84,4.26,4.26c-7.81,7.81-19.85,8.79-28.72,2.96
				C220.66,330.42,220.12,327.88,221.35,326.76z"/>
		</g>
		<g>
			<path class="st0" d="M243.05,328.89c1.42-1.42,2.84-2.84,4.26-4.26c5.75,5.75,14.62,6.48,21.16,2.18
				c1.53-0.98,3.58-1.19,4.81-0.05l0,0c1.22,1.12,0.68,3.66-1.5,5.09C262.89,337.68,250.85,336.7,243.05,328.89z"/>
		</g>
	</g>
</g>
</svg>
