<svg id="Capa_1" data-name="Capa 1" xmlns="http://www.w3.org/2000/svg" viewBox="0 0 930.87 583.32"><defs><style>.cls-1{fill:#b9829c;}</style></defs><title>isotipo</title><path d="M279.24,791.66q-81,0-134.49-23.09t-81-60.36Q36.19,671,34.57,628.82c0-4.32,1.74-8.23,5.26-11.75a17.16,17.16,0,0,1,12.56-5.27H154.47q11.34,0,17.42,4.05a45,45,0,0,1,10.94,10.54,95.11,95.11,0,0,0,18.23,23.49q11.73,11.36,30.78,18.23t47.4,6.89q47,0,70.89-14.59t23.9-39.7q0-17.81-13-29.57t-41.73-21.06q-28.77-9.3-76.56-19-61.58-12.94-104.92-33.62t-66-54.28q-22.68-33.61-22.68-83.86,0-49.39,27.95-88.3t78.18-60.77q50.24-21.87,119.1-21.87,55.9,0,98.43,14.58t71.7,38.89q29.17,24.3,44.16,51.45t15.8,53.06a16.9,16.9,0,0,1-4.86,11.75,15.85,15.85,0,0,1-12.16,5.27H380.51a33.86,33.86,0,0,1-15.39-3.25,29.8,29.8,0,0,1-11.35-10.53q-4.86-17.81-25.52-31.19T274.38,325q-35.67,0-55.5,12.56T199,376A41.06,41.06,0,0,0,210,404.4q10.93,12.15,36.46,21.06t70.08,18.64q73.71,13.78,119.09,34.43T502,532q21,32.82,21.06,82.23,0,55.11-31.19,95.2T405.63,770.6Q350.52,791.66,279.24,791.66Z" transform="translate(-34.57 -208.34)"/><path d="M615.45,783.56q-8.93,0-14.58-5.67T595.2,763.3V382.53q0-8.91,5.67-14.59t14.58-5.67h95.6a20.19,20.19,0,0,1,14.18,5.67,19.08,19.08,0,0,1,6.07,14.59V763.3a19,19,0,0,1-6.07,14.59,20.15,20.15,0,0,1-14.18,5.67Zm105.28-508a58.3,58.3,0,1,1-58.29-58.29A58.29,58.29,0,0,1,720.73,275.58Z" transform="translate(-34.57 -208.34)"/><path class="cls-1" d="M842.29,783.56q-8.92,0-14.59-5.67T822,763.3V660.41a20.17,20.17,0,0,1,5.67-14.18,19.05,19.05,0,0,1,14.59-6.07H944.37a20.37,20.37,0,0,1,15,6.07,19.47,19.47,0,0,1,6.07,14.18V763.3a19,19,0,0,1-6.07,14.59,21.15,21.15,0,0,1-15,5.67Z" transform="translate(-34.57 -208.34)"/></svg>